<svg width="512" height="512" viewBox="0 0 512 512" fill="none" xmlns="http://www.w3.org/2000/svg">
  <rect width="512" height="512" rx="128" fill="#0D1B2A"/>
  <path d="M120 150C120 127.909 137.909 110 160 110H352C374.091 110 392 127.909 392 150V362C392 384.091 374.091 402 352 402H160C137.909 402 120 384.091 120 362V150Z" fill="#FFF3DD"/>
  <path d="M168 190C168 178.954 176.954 170 188 170H324C335.046 170 344 178.954 344 190V222C344 233.046 335.046 242 324 242H188C176.954 242 168 233.046 168 222V190Z" fill="#D7613E"/>
  <path d="M176 292C176 280.954 184.954 272 196 272H252C263.046 272 272 280.954 272 292V320C272 331.046 263.046 340 252 340H196C184.954 340 176 331.046 176 320V292Z" fill="#1E8A7A"/>
  <path d="M288 292C288 280.954 296.954 272 308 272H316C327.046 272 336 280.954 336 292V320C336 331.046 327.046 340 316 340H308C296.954 340 288 331.046 288 320V292Z" fill="#0D1B2A"/>
</svg>
